<?xml version="1.0" standalone="no"?>
<!DOCTYPE svg PUBLIC "-//W3C//DTD SVG 20010904//EN"
 "http://www.w3.org/TR/2001/REC-SVG-20010904/DTD/svg10.dtd">
<svg version="1.0" xmlns="http://www.w3.org/2000/svg"
 width="201.000000pt" height="201.000000pt" viewBox="0 0 201.000000 201.000000"
 preserveAspectRatio="xMidYMid meet">
<metadata>
Created by potrace 1.14, written by Peter Selinger 2001-2017
</metadata>
<g transform="translate(0.000000,201.000000) scale(0.100000,-0.100000)"
fill="#000000" stroke="none">
<path d="M965 1638 c-53 -63 -101 -138 -141 -223 -34 -70 -37 -74 -58 -63 -48
26 -139 103 -163 139 -14 21 -29 39 -34 39 -14 0 -39 -138 -39 -219 0 -58 -4
-81 -12 -81 -21 0 -148 69 -216 116 -35 24 -65 44 -67 44 -9 0 8 -149 26 -217
19 -78 60 -165 92 -201 11 -12 18 -22 16 -22 -35 0 -133 27 -166 45 l-43 24 0
-42 c0 -55 25 -158 49 -205 27 -53 108 -125 164 -147 42 -16 51 -25 74 -73 34
-72 85 -127 147 -160 44 -23 63 -27 136 -27 108 0 171 26 235 97 l45 50 45
-50 c63 -70 127 -97 235 -97 76 0 91 3 138 29 64 36 102 78 141 155 26 50 36
60 75 75 57 22 141 96 167 148 23 46 49 155 49 211 l0 38 -43 -25 c-39 -23
-157 -48 -157 -33 0 4 14 28 30 54 43 67 79 188 87 290 5 72 4 84 -8 77 -8 -5
-47 -31 -87 -57 -61 -41 -170 -97 -187 -97 -3 0 -5 36 -5 81 0 78 -25 219 -38
219 -4 0 -20 -19 -36 -41 -26 -37 -172 -157 -180 -148 -2 2 -22 42 -45 89 -52
105 -158 250 -182 250 -4 0 -24 -19 -44 -42z m98 -135 c51 -78 73 -119 92
-173 13 -36 12 -39 -12 -62 -14 -12 -36 -40 -49 -60 -24 -37 -25 -38 -88 -38
-60 0 -64 2 -70 25 -4 14 -24 43 -46 65 l-40 40 30 66 c32 72 117 204 130 204
5 0 29 -30 53 -67z m-215 -316 l22 -31 -38 -18 c-20 -10 -48 -30 -61 -45 -21
-24 -23 -34 -18 -83 4 -31 9 -65 13 -74 6 -16 3 -17 -17 -11 -77 23 -133 158
-146 348 l-6 98 114 -77 c63 -42 125 -90 137 -107z m552 -9 c-19 -122 -81
-237 -136 -253 l-22 -6 16 71 c15 68 14 72 -4 98 -11 15 -39 36 -62 47 -23 11
-41 23 -42 26 -1 17 50 65 119 111 42 28 90 62 106 76 l30 25 3 -63 c2 -35 -2
-94 -8 -132z m-897 -23 c33 -9 40 -19 56 -75 7 -25 22 -63 32 -84 10 -22 19
-41 19 -43 0 -2 -35 -3 -77 -1 l-77 3 -42 62 c-39 57 -72 131 -88 195 l-6 27
78 -39 c43 -21 90 -42 105 -45z m1167 1 c-21 -64 -65 -142 -103 -183 -18 -20
-31 -23 -93 -23 l-73 0 29 61 c16 34 32 78 35 99 6 33 11 40 38 46 18 3 66 23
107 44 41 21 76 34 78 29 2 -5 -6 -38 -18 -73z m-521 -84 c50 -24 46 -44 -14
-64 -98 -33 -295 -12 -303 33 -3 17 49 42 108 53 48 9 174 -4 209 -22z m-199
-154 c60 -9 90 -8 148 4 l74 15 -6 -30 c-3 -16 -27 -50 -53 -76 -27 -26 -58
-59 -70 -74 -30 -37 -46 -34 -84 16 -19 23 -50 58 -70 77 -42 39 -63 98 -32
86 10 -4 52 -12 93 -18z m-305 -48 c96 -12 166 -45 225 -105 l43 -44 -54 -15
c-107 -30 -176 -39 -284 -40 -101 -1 -115 1 -170 27 -33 16 -71 38 -84 50 -22
21 -71 110 -71 132 0 12 281 9 395 -5z m1125 5 c0 -24 -45 -108 -72 -132 -12
-12 -50 -34 -83 -50 -53 -25 -70 -28 -155 -27 -100 1 -258 25 -311 47 l-31 12
43 43 c84 85 144 102 379 112 102 4 195 7 208 8 14 1 22 -4 22 -13z m-818
-302 c-48 -92 -116 -133 -222 -133 -87 0 -138 23 -180 82 -17 22 -30 44 -30
49 0 4 35 10 78 14 98 9 258 40 320 63 l47 18 3 -27 c2 -15 -6 -45 -16 -66z
m235 52 c50 -13 140 -29 200 -36 59 -6 110 -13 112 -15 12 -11 -59 -90 -98
-111 -68 -36 -169 -33 -238 7 -59 34 -113 112 -113 164 0 25 3 27 23 22 12 -4
63 -18 114 -31z"/>
</g>
</svg>
